<?xml version="1.0" encoding="UTF-8"?>
<svg id="Layer_2" data-name="Layer 2" xmlns="http://www.w3.org/2000/svg" viewBox="0 0 361.22 458.89">
  <defs>
    <style>
      .cls-1 {
      fill: #1f1d22;
      }

      .cls-1, .cls-2, .cls-3, .cls-4, .cls-5, .cls-6, .cls-7, .cls-8, .cls-9, .cls-10, .cls-11,
      .cls-12, .cls-13, .cls-14, .cls-15, .cls-16, .cls-17, .cls-18, .cls-19 {
      stroke-width: 0px;
      }

      .cls-2 {
      fill: #9c867c;
      }

      .cls-3 {
      fill: #211514;
      }

      .cls-4 {
      fill: #2b1311;
      }

      .cls-5 {
      fill: #ae958a;
      }

      .cls-6 {
      fill: #042b30;
      }

      .cls-7 {
      fill: #0d1216;
      }

      .cls-8 {
      fill: #ada8a2;
      }

      .cls-9 {
      fill: #c6c5c3;
      }

      .cls-10 {
      fill: #f8f5f2;
      }

      .cls-11 {
      fill: #e3e98f;
      }

      .cls-12 {
      fill: #614342;
      }

      .cls-13 {
      fill: #171312;
      }

      .cls-14 {
      fill: #f3e3d1;
      }

      .cls-15 {
      fill: #c3afa7;
      }

      .cls-16 {
      fill: #aad2b0;
      }

      .cls-17 {
      fill: #d0d8da;
      }

      .cls-18 {
      fill: #4c3335;
      }

      .cls-19 {
      fill: #997a73;
      }
    </style>
  </defs>
  <g id="Layer_1-2" data-name="Layer 1">
    <g>
      <g>
        <path class="cls-17"
          d="M81.61,426l2.5,1c-4.06.79-27.45,5.58-28.5,8.75-3.68,11.13,51.58,17.46,59.25,18.25,44.07,4.53,161.8,6.66,200.5-9.5,5.8-2.42,14.97-6.65,5.5-11.5-14.87-7.61-72.41-11.75-91.75-12,1.27-1.46,2.75-2.62,4-4,7.6,1.73,16.23,1.63,24.25,2.5,14.28,1.54,110.05,11.71,49,29.5-40.88,11.91-143.57,11.45-187.5,7-6.87-.7-74.12-7.82-63.75-21.75,2.17-2.92,21.92-7.28,26.5-8.25Z" />
        <path class="cls-9"
          d="M149.61,417.5c.84.87,1.67,1.57,2.5,2.5-22.73,1.45-45.6,2.65-68,7l-2.5-1c21.28-4.49,46.27-7.17,68-8.5Z" />
        <path class="cls-16"
          d="M152.11,420c.53.6,7.59,7.33,6.25,8-6.38-.8-22.25,1.87-26,1-.28-.06-1.57-2.12-3.5-2.5-7.13-1.4-12.97,6.8-6.75,11.75-13.8,1.95-14.28,2.48,0,2.75l3.25,1,140.5-.5c11.6-2.25-.15-1.57-6.25-2.5,6.17-4.17,1.91-13.74-6.75-12-.17.03-2.34,1.98-2.5,2-4.99.71-19.14-1.44-26-1-1.26-.32.56-2.37,1.75-4,.13-.17,2.01-1.86,3-3,19.34.25,76.88,4.39,91.75,12,9.47,4.85.3,9.08-5.5,11.5-38.7,16.16-156.43,14.03-200.5,9.5-7.67-.79-62.93-7.12-59.25-18.25,1.05-3.17,24.44-7.96,28.5-8.75,22.4-4.35,45.27-5.55,68-7Z" />
        <path class="cls-16"
          d="M213.11,420c-.28,2.49-1.19,5.02-1.5,7.5-.76,6.14-3.42,9.21,4.5,11.5h-52c1.7-.33,4.02-.61,5.5-1.5,6.28-3.78,1.26-7.75-1-17.5h44.5Z" />
        <path class="cls-6"
          d="M164.11,439h52c3.57,1.03,37.48,2.14,40.75,1.5.15-.03,2.48-1.32,2.75-1.5,6.1.93,17.85.25,6.25,2.5l-140.5.5-3.25-1c9.34.17,33.99-.44,42-2Z" />
        <path class="cls-17"
          d="M213.11,418c-.07.65.07,1.35,0,2h-44.5c-.21-.89-.43-1.19-.5-1.5l45-.5Z" />
      </g>
      <g>
        <path class="cls-12"
          d="M236.11,38c.03,1.98,12.82,11.25,15.25,13.5,3.96,3.67,7.96,7.65,11.75,11.5,1.65,1.67,2.93,3.35,4.5,5,3.31,10.49,14.27,20.43,20,28.75.73,1.07,2.23,3.38,1.5,4.25-11.08-10.18-45.72-29.09-60.75-31.5-34.69-5.57-30.28,16.97-31.25,49-3.6-1.25-11.31-1.07-15,0,.03-9.69-.49-30.51-3.5-38.75-10.9-29.86-75.02,9.13-92,25.25,1.13-3.74,4.68-8.82,7-12.25,5.29-7.81,13.7-16.52,15.5-23.25.15-.13.83-1.35,1-1.5,1.83-1.62,3.29-3.3,5-5,4.51-4.48,8.83-8.91,13.5-13.25.22-.21.43-1.69.5-1.75,2.07-1.88,5.77-4.97,8-6.5.12-.08,2.1-1.27,2.5-1.5,26.57-15.48,68.99-15.08,96.5-2Z" />
        <path class="cls-14"
          d="M289.11,101c4.41,4.04,10.05,13.31,15.5,19.5,1.67,1.9,11.68,10.73,12,11.5-4.74.99-19.89.59-23.5-1-3.53-1.56-48.45-40.87-63.75-42.5-20.69-2.2-24.73,20.68-23.75,36.5-1.8-1.94-6.32-5.75-8.5-6.5.97-32.03-3.44-54.57,31.25-49,15.03,2.41,49.67,21.32,60.75,31.5Z" />
        <path class="cls-14"
          d="M182.11,118.5c-4.73,1.37-8.65,6.67-9.5,5.25,1.12-8.86-.06-17.57-4.5-25.25-5.45-9.44-12.85-11.89-23.25-8.5-13.91,4.52-55.56,39.35-58.75,41-6.8,3.51-20.16,1.98-27.5-.5,5.73-1.05,11-4.27,14.5-9,4.78-5.35,8.24-11.51,13.5-16.5,16.98-16.12,81.1-55.11,92-25.25,3.01,8.24,3.53,29.06,3.5,38.75Z" />
        <path class="cls-7"
          d="M168.11,427.5c5.36,1.86,4.22,5.78,1.5,10-1.48.89-3.8,1.17-5.5,1.5-8.01,1.56-32.66,2.17-42,2-14.28-.27-13.8-.8,0-2.75-6.22-4.95-.38-13.15,6.75-11.75,1.93.38,3.22,2.44,3.5,2.5,3.75.87,19.62-1.8,26-1,1.34-.67-5.72-7.4-6.25-8-.83-.93-1.66-1.63-2.5-2.5-1.03-1.06-1.95-2.46-3-3.5l3.5-.5c1.98,1.87,14.72,14.21,15.75,14.5,1.3.36,2.04-.57,2.25-.5Z" />
        <path class="cls-4"
          d="M58.61,130.5c7.34,2.48,20.7,4.01,27.5.5,5.2,2.53,9.24,7.18,14.25,10,1.99,1.12,13.19,5.77,14.75,5.5-2.04,2.49-1.9,4.27-2,4.5-.13.3-1.4,2-1.5,2.5-16.38.08-12.36-2.82-16.25-5-3.31-1.86-7.72-2.38-10.25-3.5-9.59-4.25-18.24-9.64-27.75-14l1.25-.5Z" />
        <path class="cls-4"
          d="M316.61,132l-.25,1c-7.55,1.64-16.88,10.01-23.75,11.5-6.04,1.31-12.2.1-18.25,0,3.05,5.33,17.13.05,10.25,6.5-1.31,1.23-2.19,1.5-3.5,2.5-5.14-1.21-10.74-1.31-16-1.5-.04-.32.07-.73,0-1-.34-1.32-.55-2.43-1.5-3.5,10.78-3.55,20.84-9.23,29.5-16.5,3.61,1.59,18.76,1.99,23.5,1Z" />
        <path class="cls-3"
          d="M273.11,72.5c.22.3-.82,3.21,2,3.5,5.15,8.7,27.53,39.1,30,43.75.18.34-.03.8-.5.75-5.45-6.19-11.09-15.46-15.5-19.5.73-.87-.77-3.18-1.5-4.25-5.73-8.32-16.69-18.26-20-28.75,1,1.05,5.29,4.21,5.5,4.5Z" />
        <path class="cls-4"
          d="M292.61,144.5c2.62.9-3.64,4.2-8,6.5,6.88-6.45-7.2-1.17-10.25-6.5,6.05.1,12.21,1.31,18.25,0Z" />
        <path class="cls-7"
          d="M226.11,424c-1.19,1.63-3.01,3.68-1.75,4,6.86-.44,21.01,1.71,26,1,.16-.02,2.33-1.97,2.5-2,8.66-1.74,12.92,7.83,6.75,12-.27.18-2.6,1.47-2.75,1.5-3.27.64-37.18-.47-40.75-1.5-7.92-2.29-5.26-5.36-4.5-11.5,1.05-.22,1.57,1,2.5,1,3.74.02,6.58-4.07,9.5-6.5l2.5,2Z" />
        <g>
          <path class="cls-4"
            d="M139.61,274c-.22,1.1.06,2.39-.5,3.5-2.42-1.56-14.09-7.3-12-3,.37,12,3.2,23.72,8.5,34.5l-5.5,6.75c5.84-16.05-2.86-8.88-5-30.75-1.3-13.29,3.22-12.03-4.75-15.5,1.56,9.62-6.97,22.79-2.25,21.5-11.72,47.21-3.81,88.65,32,122.5l-3.5.5c-4.12-4.1-9.06-7.35-13-11.75-11.26-12.56-16.81-25.34-20-41.75-.74-3.83-1.65-15.35-2-16.25-.83-2.14-1.71-1.1-3-2.75,1.39-1.74,0-5.7,0-6,0-.05,1,.16,1-.25.02-2.09-1-7.35-1-7.75,0-16.32,2.22-20.05,3-26.75.02-.21-1.74-.14-1.5-2,1.01-7.83,3.01-15.98,5.25-23.25-6.24,5.71-.04-8.01-.25-9.25-.22-1.3-13.44-11.06-13.5-22-.04-7.88,5.8-23.98,9.5-31.25-2.81,18.47-12.34,26.14.5,42.75,4.82,6.23,18.74,18.1,9.5,4.5-6.76-19.71,3.5,5.39,6,8,.76.79,10.21,4.62,12.5,5.75Z" />
          <g>
            <path class="cls-12"
              d="M134.61,187c8.81,1.54,16.66,5.31,24,10.25-9.32,9.24-14.86,21.45-19.25,33.75-11.52-8.44-10.94-8.96-1.75,2.25.46,6.13-3.27-1-10-5l23,29.25c.94,1.36,3.27,5.74,3.5,6-8.06-.73-12.88,2.52-14.5,10.5-2.29-1.13-11.74-4.96-12.5-5.75-2.5-2.61-12.76-27.71-6-8,9.24,13.6-4.68,1.73-9.5-4.5-12.84-16.61-3.31-24.28-.5-42.75,6-11.77,12.88-18.53,23.5-26Z" />
            <path class="cls-4"
              d="M111.61,153.5l.25,2.5c14.38,5.94,28.27,13.92,43.5,17.5,5.78,1.36,16.04,2.06,19.25,3,3.58,1.05-.74,3.67-7,11.5-2.67,3.34-5.44,6.57-8,10-3.88,5.21-7.88,9.98-11,15.75-2.2,4.08-10.09,22.19-9.5,25.5.19,1.06,10,16.09,11.5,18.25l-23-29.25c6.73,4,10.46,11.13,10,5-9.19-11.21-9.77-10.69,1.75-2.25,4.39-12.3,9.93-24.51,19.25-33.75-7.34-4.94-15.19-8.71-24-10.25,6.43-4.52,12.95-9.03,20.75-11l-.5-1c-20.87.2-46.53-16.77-51-18-1.31-.36-5,.37-6,0-1.52-.56.58-3.23-.5-4.5-.51-.6-14.39-3.54-12.25-7.5,2.53,1.12,6.94,1.64,10.25,3.5,3.89,2.18-.13,5.08,16.25,5Z" />
          </g>
          <path class="cls-4"
            d="M261.61,282.5c1.51,6.42,6.1,16.51,2,12.5-1.44-1.4-8.69-17.26-12.25-21,.48,9.46-4.32,25.31-4.75,31.75-.49,7.4,2.63,17.57-1.75,1.25-3.16,12.47.43,16.17-5,9-1.49,3.35-4.64,7.79-4.75,8.25-1.04,4.5,3.09,10.87-2.25,3.75-10.23,8.25-.3,6.07-.75,7.75-.16.61-5.47-.81-5.75-.75-1.36.3-15.74,18.22-18,21l-1-6c-3.73,3.97-10.34,6.38-14,9-1.15.82-.55,1.87-1,2-.53.16-1.53-6.53-3.5,4.5-3.69-5.58-9.87-8.27-15-12-15.23-11.07-9.37-10.5-3,4.5-10.07-7.52-12.42-16.5-13.5-16.5-.2,0-1.49,3.11-3.25,1.25-1.9-2.01-10.59-23.47-7.75-11.75-7.37-10.05,1.32,6.54,0,7-5.55-7.18-6.84-21-9.75-16.25l1.5-8.25c.17.3,2.82,3.78,4,5.5,1.27,1.85,2.09,4.51,3.5,6.25,10.44,12.95,29.44,24.84,44.75,31.25,16.41-9.23,22.44-13.67,35.25-27.5,1.81-1.95,3.33-3.95,5-6,5.86-7.17,12.39-14.35,13.5-24,4.18-10.64,4.65-21.24,4-32.5l12.5,18.25,1-2.25Z" />
          <g>
            <path class="cls-12"
              d="M340.11,149.5c-.88,12.81-.26,18.99-4.5,33.25-3.01,10.13-7.58,19.3-14.5,27.25-8.08,4.94-16.15,10.64-25.75,12,.69-5.09-3.2,2.31-13.25,2.25,4.34-7.75,2.81-6.95-1.75-.25-1.51-.93,2.36-12.86-2.5-2.5-4.23-3.81.93.94-4.5,5-1.99.33-5.54-5.88-6.5-7.5-1.87.91,8.06,17.49-12,1.5-1.8.02,2.73,8.64,1,8.5l-7.5-8.5c-1.13,7.3.83,10.83-2.25.75-3.24-4.42,1.43,6.03.75,6.25-10.61-9.84-8.8-13.96-9.25-14.75-.2-.35-3.21-1.06-6.5-4.75-1.15-1.3-2.4-2.67-3.5-4-.11-.13-.71-2.05-1.5-3,2.82-.58,5.68-.93,8.5-1.5,12.51-2.51,31.53-9.01,33.25-9,1.43,0,5.12,2.69,6.75,1,1.52.44,2.93,1.15,4.5,1.5,3.93,7.59,18.84.69,22.75,6,2.58-6.59,4.1-13.7,6.75-20.25,2.3-5.67,6.72-11.91,8-17.25,2.04-3.71,6.08-10.21,7.5-13.5,5.48-.22,10.72-.06,16,1.5Z" />
            <path class="cls-4"
              d="M281.11,153.5c.85.2,1.8-.42,2.5.75-21.57,9.28-37.29,18.09-61.5,21,12.46,1.88,24.09,6.42,36,10.25,1.08,3.78-1.71,1.24-2.25,1.5-1.13.54-10.65,8.8-22,11.5l.75,1c-2.82.57-5.68.92-8.5,1.5-3.84-4.64-8.16-8.92-12-13.5-2.54-3.03-7.49-7.06-9-10.5,21.16-2.85,40.66-11.31,59.75-20.5,1.72-1.56.31-3.98.25-4.5,5.26.19,10.86.29,16,1.5Z" />
            <path class="cls-4"
              d="M321.11,210c-5.94,6.82-14.35,13.54-22.75,17-8.9,3.66-38.55,10.24-47.25,8.5-3.15-.63-7.18-8.55-10.5-10.5-2.36-6.01-6.91-11.1-9.5-17,3.29,3.69,6.3,4.4,6.5,4.75.45.79-1.36,4.91,9.25,14.75.68-.22-3.99-10.67-.75-6.25,3.08,10.08,1.12,6.55,2.25-.75l7.5,8.5c1.73.14-2.8-8.48-1-8.5,20.06,15.99,10.13-.59,12-1.5.96,1.62,4.51,7.83,6.5,7.5,5.43-4.06.27-8.81,4.5-5,4.86-10.36.99,1.57,2.5,2.5,4.56-6.7,6.09-7.5,1.75.25,10.05.06,13.94-7.34,13.25-2.25,9.6-1.36,17.67-7.06,25.75-12Z" />
            <path class="cls-4"
              d="M279.11,193c4.84,1.09,11.03,2.86,15.75.5,4.68-2.34,18.52-26.12,21.75-32-1.28,5.34-5.7,11.58-8,17.25-2.65,6.55-4.17,13.66-6.75,20.25-3.91-5.31-18.82,1.59-22.75-6Z" />
            <path class="cls-4"
              d="M274.61,191.5c-1.63,1.69-5.32-1-6.75-1-1.72,0-20.74,6.49-33.25,9l-.75-1c11.35-2.7,20.87-10.96,22-11.5.54-.26,3.33,2.28,2.25-1.5,5.56,1.79,10.84,4.37,16.5,6Z" />
          </g>
          <path class="cls-12"
            d="M259.61,275.5c.55,2.4,1.44,4.63,2,7l-1,2.25-12.5-18.25c-.15-2.63-.23-5.38-.5-8,4.74.79,8.65,13.15,12,17Z" />
          <path class="cls-18"
            d="M251.11,235.5c-.05,2.16,1.91,6.57,3,9.5-3.94-.15-8.98-8.62-10-6-1-4.53-1.81-9.69-3.5-14,3.32,1.95,7.35,9.87,10.5,10.5Z" />
          <path class="cls-12"
            d="M256.11,259c.81,2.38,2.59,6.25,3,8l-13-16.5c-.32-2.12-.6-4.41-1-6.5,2.67-.32,10.58,10.04,11.5,12.75.4,1.17-.57,2.06-.5,2.25Z" />
          <path class="cls-4"
            d="M259.11,267c.76,3.26.24,7.38.5,8.5-3.35-3.85-7.26-16.21-12-17-.27-2.59-1.1-5.36-1.5-8l13,16.5Z" />
          <path class="cls-4"
            d="M254.11,245c1.46,3.93,6.05,12.86,2,14-.07-.19.9-1.08.5-2.25-.92-2.71-8.83-13.07-11.5-12.75-.32-1.7-.63-3.3-1-5,1.02-2.62,6.06,5.85,10,6Z" />
          <path class="cls-4"
            d="M233.11,417c-1.25,1.38-2.73,2.54-4,4-.99,1.14-2.87,2.83-3,3l-2.5-2c8.32-6.93,16.12-14.58,24-22-4.54,6.08-9.44,11.39-14.5,17Z" />
          <path class="cls-4"
            d="M214.61,384c-2.82.52-2.74,1.18-3.5,3.5-3.68-2.87-15.37,6.09-21.25,6-5.12-.08-15.44-7.27-20.75-8.5l-2.5-3c3.05-6.03,5.84-10.32,2.5-3.75,9.47,10.64,31.66,9.42,36.5,3.5,1.07-1.31-.29-6.67,2.75.25,5.44.57,9.89-8.52,6.25,2Z" />
          <path class="cls-4"
            d="M214.11,428.5c-.93,0-1.45-1.22-2.5-1,.31-2.48,1.22-5.01,1.5-7.5.07-.65-.07-1.35,0-2,1.05-10.05,3.81-21.46-2-30.5.76-2.32.68-2.98,3.5-3.5.33-.06-.27,1.81,6-.75-4.56,5.55,1.74,7.34,1.5,8.5-.12.6-1.84.88-2,1.5-.18.7-.6,13.78-.5,14.5.07.49,1.31,0,1.5.5.14.37-1.72.87-2,1.5-1.31,2.91-2.98,14.32-5,18.75Z" />
          <path class="cls-4"
            d="M166.61,382l2.5,3c-4.81,9.86-3.36,23.06-1,33.5.07.31.29.61.5,1.5,2.26,9.75,7.28,13.72,1,17.5,2.72-4.22,3.86-8.14-1.5-10-3.84-11.44-10.07-26.11-7-37.25-6.85-8.92-7.9-8.86,1.75-2.75-.33-5.78-3-12.61,2-2.5.3-1.11,1.29-2.1,1.75-3Z" />
          <path class="cls-4"
            d="M125.11,285c-7.75,7.7-1.42,9.57-.25,18-4.46-6.19-6.9-17.76-6.75-12-4.72,1.29,3.81-11.88,2.25-21.5,7.97,3.47,3.45,2.21,4.75,15.5Z" />
          <g>
            <path class="cls-12"
              d="M263.61,295c-.99,1.04.64,6.62,1.5,10.5-1.4,5.3.74,11.24,1.5,16.5,4.33,30.03-.74,53.58-19,78-7.88,7.42-15.68,15.07-24,22-2.92,2.43-5.76,6.52-9.5,6.5,2.02-4.43,3.69-15.84,5-18.75.28-.63,2.14-1.13,2-1.5-.19-.5-1.43-.01-1.5-.5-.1-.72.32-13.8.5-14.5.16-.62,1.88-.9,2-1.5.24-1.16-6.06-2.95-1.5-8.5-6.27,2.56-5.67.69-6,.75,3.64-10.52-.81-1.43-6.25-2-3.04-6.92-1.68-1.56-2.75-.25-4.84,5.92-27.03,7.14-36.5-3.5,3.34-6.57.55-2.28-2.5,3.75-.46.9-1.45,1.89-1.75,3-5-10.11-2.33-3.28-2,2.5-9.65-6.11-8.6-6.17-1.75,2.75-3.07,11.14,3.16,25.81,7,37.25-.21-.07-.95.86-2.25.5-1.03-.29-13.77-12.63-15.75-14.5-35.81-33.85-43.72-75.29-32-122.5-.15-5.76,2.29,5.81,6.75,12-1.17-8.43-7.5-10.3.25-18,2.14,21.87,10.84,14.7,5,30.75l5.5-6.75s.15-.19.5.5c-4,4.69-.96,11.17-1.5,16.75l1.5-14.5,1,.25c.04.08.36.38,1,1.5l-1.5,8.25c2.91-4.75,4.2,9.07,9.75,16.25,1.32-.46-7.37-17.05,0-7-2.84-11.72,5.85,9.74,7.75,11.75,1.76,1.86,3.05-1.25,3.25-1.25,1.08,0,3.43,8.98,13.5,16.5-6.37-15-12.23-15.57,3-4.5,5.13,3.73,11.31,6.42,15,12,1.97-11.03,2.97-4.34,3.5-4.5.45-.13-.15-1.18,1-2,3.66-2.62,10.27-5.03,14-9l1,6c2.26-2.78,16.64-20.7,18-21,.28-.06,5.59,1.36,5.75.75.45-1.68-9.48.5.75-7.75,5.34,7.12,1.21.75,2.25-3.75.11-.46,3.26-4.9,4.75-8.25,5.43,7.17,1.84,3.47,5-9,4.38,16.32,1.26,6.15,1.75-1.25.43-6.44,5.23-22.29,4.75-31.75,3.56,3.74,10.81,19.6,12.25,21Z" />
            <g>
              <path class="cls-18"
                d="M266.61,322c-.76-5.26-2.9-11.2-1.5-16.5,1.78,8.01,5.67,20.3,1.5,16.5Z" />
              <path class="cls-4"
                d="M137.11,312l-1-.25-1.5,14.5c.54-5.58-2.5-12.06,1.5-16.75.74,1.48.94,2.38,1,2.5Z" />
              <path class="cls-4"
                d="M124.86,356.5c1.23-.32,4.42,7.1,3.5,7.5-1.91-1.77-5.56-5.15-3.5-7.5Z" />
              <path class="cls-4" d="M245.36,396c2.61-.23-3.45,6.57-3.75,3.75l3.75-3.75Z" />
              <path class="cls-4" d="M199.86,376c1.28-.26-.29,5.46-3.25,3.25l3.25-3.25Z" />
              <path class="cls-4" d="M227.86,367.5c1.8-.28,3.14,4.72-.75.75l.75-.75Z" />
              <path class="cls-4" d="M233.36,373.5c1.72-.28,3.84,3.8-.5,1l.5-1Z" />
              <path class="cls-18" d="M251.36,361c2.16,2.29.7,2.99-1.25.75l1.25-.75Z" />
            </g>
          </g>
        </g>
        <g>
          <path class="cls-13"
            d="M139.61,40c-.4.23-2.38,1.42-2.5,1.5,4.3-15.4-27.46-38.48-42.25-40-14.55,16.81-11.29,48.5,3.75,64,7.49,7.72,6.87,7.05,10.5,4-1.8,6.73-10.21,15.44-15.5,23.25-2.32,3.43-5.87,8.51-7,12.25-5.26,4.99-8.72,11.15-13.5,16.5.28-.38,2.91-5.99,4.5-8.25,9.22-13.07,17.47-26.66,27-39.5-22.21-15.08-30.08-54.9-9.75-73.75,18.53,5.1,41.5,19.81,44.75,40Z" />
          <path class="cls-14"
            d="M137.11,41.5c-2.23,1.53-5.93,4.62-8,6.5-1.7.15-.25-.4-.5-2.25-2.45-17.95-29.72-38.84-32-14-.51,5.58.36,12.28,3,17.25.28,6.24,6,11.48,9,17l-10-.5c-15.04-15.5-18.3-47.19-3.75-64,14.79,1.52,46.55,24.6,42.25,40Z" />
          <path class="cls-7"
            d="M129.11,48c-.07.06-.28,1.54-.5,1.75-4.67,4.34-8.99,8.77-13.5,13.25-5.36-3.51-12.45-8.26-15.5-14-2.64-4.97-3.51-11.67-3-17.25,2.28-24.84,29.55-3.95,32,14,.25,1.85-1.2,2.4.5,2.25Z" />
          <path class="cls-2"
            d="M115.11,63c-1.71,1.7-3.17,3.38-5,5-.36-.8-1.07-1.22-1.5-2-3-5.52-8.72-10.76-9-17,3.05,5.74,10.14,10.49,15.5,14Z" />
          <path class="cls-19"
            d="M108.61,66c.43.78,1.14,1.2,1.5,2-.17.15-.85,1.37-1,1.5-3.63,3.05-3.01,3.72-10.5-4l10,.5Z" />
        </g>
        <path class="cls-7"
          d="M154.11,263.5c6.58,7.46,11.26-2.5,18.5,4.75.34,8.1-8.7,2.42-9.5,4.5-1.76,4.6,16.25,3.17,14.5,11.5l-2.75.75c-16.83-10.8,1.19,1.21.75,4.75-2.1,5.01-8.5-3.7-12.5-5,2.39,3.01,5.99,4.97,7.5,8.75-16.38-.65-25.83-12.35-31.5-16,.56-1.11.28-2.4.5-3.5,1.62-7.98,6.44-11.23,14.5-10.5Z" />
        <g>
          <path class="cls-7"
            d="M60.11,257c2.24.94,4.27,2.78,7,2.5,4.7,13.94,9.81,27.6,17.5,40.25.39.64-.52.71-.5.75l-9.25-3.5c-2.46,2.65,1.7,10.17,0,10.5-13.02-5.21-10.39.62-6.25,9.75-3.74.71-8.13-3.82-11,0,3.62,12.33,9.58,12.71,1,12.75-.28,0-4.04-1.53-5.5.25l3.25,8.75c-18.13-10.73-31.45-26.72-40.25-45.75l.75-.75c9.15,4.33-.42-2.17.25-7.5.68-5.44,6.69-4.04,10-2.25-8.88-15.92,7.37-7.89,8.75-8.25,6.82-1.77-9.39-19.46,14-9,7.68-7.93-2.22-13.73,10.25-8.5Z" />
          <path class="cls-7"
            d="M47.61,199.5c2.53.81,3.86,1.4,5,4,4.08,14.24,4.95,24.55,7,32.5-.47.14-1.63-1.17-3-2.5-8.14-7.94-15.6-4.36-13.75,7-27.66-8.43-15.51,7.24-18,9-.96.68-11.76-3.84-16.25.25-.77,2.2-.26,12.36,0,13.75-4.18,2.74-4.15-1.04-5.5-5.5-3.04-10-4.68-31.7-1-41,5.02,7.63-1.14-13.95,11.75-5,.52-.18,3.03-9.28,3.5-9.5,3.29-1.57,8.71,8.54,9-4.5,14.44,8.49,7.62.16,10.5-1,4.78,2.21,9.36,2.06,10.75,2.5Z" />
          <path class="cls-7"
            d="M108.61,327.5c0,.4,1.02,5.66,1,7.75,0,.41-1,.2-1,.25-8.66-1.53-4.15.72,0,6,1.29,1.65,2.17.61,3,2.75.35.9,1.26,12.42,2,16.25-1.33-1.71-7.39-.92-11.75-1.5-12.5-1.65-32.36-7.93-39.75-18.75l8.75-2.75c.52-.48-1.67-2.37-1.75-2.5-.49-.8-2.78-4.14-2.5-4.75,18.99-4.7,4.93-6.32,5-9.5.74-1.75,9.37-5.94,9.5-6.5.32-1.42-6.83-2.35,4-12.25,7.86,8.49,13.87,18.7,23.5,25.5Z" />
          <path class="cls-14"
            d="M84.11,300.5c.48.78,1.23.33,1,1.5-10.83,9.9-3.68,10.83-4,12.25-.13.56-8.76,4.75-9.5,6.5-.07,3.18,13.99,4.8-5,9.5-.28.61,2.01,3.95,2.5,4.75-1.04,3.96-5.67-2.6-10.5-5,8.58-.04,2.62-.42-1-12.75,2.87-3.82,7.26.71,11,0-4.14-9.13-6.77-14.96,6.25-9.75,1.7-.33-2.46-7.85,0-10.5l9.25,3.5Z" />
          <path class="cls-1"
            d="M49.61,188c-1.47-.13-3.2-1.22-4.5-1.5-15.7-3.37-35.07,6.99-41,18-1.32-12.01.39-7.02,2.25-8,3.81-2.02,1.03-5.28,1.25-5.75.23-.48,3.12.7,7.25-7.25,2.99,5.63,4.69-3.42,6.5-4,2.94-.94,2.05,4.3,7-2.5,4.8,7.89,12.75-4.28,11,3,11.74-1.06,10.22-.71,10.25,8Z" />
          <g>
            <path class="cls-14"
              d="M56.61,233.5l3.5,23.5c-12.47-5.23-2.57.57-10.25,8.5-23.39-10.46-7.18,7.23-14,9-1.38.36-17.63-7.67-8.75,8.25-3.31-1.79-9.32-3.19-10,2.25l-1-.5c-.4-2.34-7.29-19.9-7.5-21-.26-1.39-.77-11.55,0-13.75,4.49-4.09,15.29.43,16.25-.25,2.49-1.76-9.66-17.43,18-9-1.85-11.36,5.61-14.94,13.75-7Z" />
            <path class="cls-15"
              d="M59.61,236c1.2,4.65,5.8,15.63,8,22.25.41,1.24-.52,1.19-.5,1.25-2.73.28-4.76-1.56-7-2.5l-3.5-23.5c1.37,1.33,2.53,2.64,3,2.5Z" />
          </g>
          <path class="cls-8"
            d="M8.61,263.5c.21,1.1,7.1,18.66,7.5,21,.27,1.59.77,3.68-1.25,4-2.99-3.36-12.6-28.13-12.75-29.75,0-.07.7-.82,1-.75,1.35,4.46,1.32,8.24,5.5,5.5Z" />
          <g>
            <path class="cls-14"
              d="M45.11,186.5l2.5,13c-1.39-.44-5.97-.29-10.75-2.5-2.88,1.16,3.94,9.49-10.5,1-.29,13.04-5.71,2.93-9,4.5-.47.22-2.98,9.32-3.5,9.5-12.89-8.95-6.73,12.63-11.75,5-1.81-2.76.26-9.28,2-12.5,5.93-11.01,25.3-21.37,41-18Z" />
            <path class="cls-15"
              d="M49.61,188c0,.45-1.03,1.47-1,2.25.03.78.86,8.1,1,8.5.55,1.58,1.73.33,3,4.75-1.14-2.6-2.47-3.19-5-4l-2.5-13c1.3.28,3.03,1.37,4.5,1.5Z" />
          </g>
          <path class="cls-15" d="M108.61,335.5c0,.3,1.39,4.26,0,6-4.15-5.28-8.66-7.53,0-6Z" />
        </g>
        <g>
          <path class="cls-7"
            d="M275.11,76c-2.82-.29-1.78-3.2-2-3.5,1.81-2.26,4.07-3.83,6-6,15.02-16.88,18.87-47.12,3.25-64.5-6.57-2.98-30.14,11.17-38.25,22.75-1.31,1.88-6.52,11.98-6.5,13.5.04,2.43,8.2,5.83,9.75,8.25.63-10.37,18.25-31.81,29-26,6.16,3.33,4.97,24.49-4.75,35.5-1.33,1.51-3.4,3.25-5,4.5-1.12.87-2.51,1.45-3.5,2.5-3.79-3.85-7.79-7.83-11.75-11.5-2.43-2.25-15.22-11.52-15.25-13.5,4.93-15.31,18.03-27.95,32.75-34,11.48-4.72,17.61-6.46,23.25,11.25,11.94,37.48-18.42,55.72-18.5,59,0,.12,1.06,1,1.5,1.75Z" />
          <path class="cls-5"
            d="M273.61,64c1.73.83,3.31,2.36,5.5,2.5-1.93,2.17-4.19,3.74-6,6-.21-.29-4.5-3.45-5.5-4.5-1.57-1.65-2.85-3.33-4.5-5,.99-1.05,2.38-1.63,3.5-2.5,2.04,1.72,4.66,2.38,7,3.5Z" />
          <path class="cls-14"
            d="M279.11,66.5c-2.19-.14-3.77-1.67-5.5-2.5l-2-8c9.72-11.01,10.91-32.17,4.75-35.5-10.75-5.81-28.37,15.63-29,26-1.55-2.42-9.71-5.82-9.75-8.25-.02-1.52,5.19-11.62,6.5-13.5,8.11-11.58,31.68-25.73,38.25-22.75,15.62,17.38,11.77,47.62-3.25,64.5Z" />
          <path class="cls-15"
            d="M273.61,64c-2.34-1.12-4.96-1.78-7-3.5,1.6-1.25,3.67-2.99,5-4.5l2,8Z" />
        </g>
        <g>
          <path class="cls-7"
            d="M340.11,149.5c-5.28-1.56-10.52-1.72-16-1.5,4.61-10.68.81-6.18-4-18.75-1.27-3.33-5.82-18.48-5-21,9.91-9.05,8.52,9.94,11,11.5,11.43-.57,4.74-18.36,11.75-24.25,11.07-3.39-1.38,20.88,2,21,2.5.09,6.07-29.05,15.25-19.75.82,3.02-9.99,15.53-9.5,23,3-6.08,4.01-13.96,10.25-17.75,9.58,1.82-3.13,9.2-6.75,21.25.97,2.49,6.48-15.91,12-11.5,1.85,11.97-20.4,30.6-21,32.5-.24.75.12,3.56,0,5.25Z" />
          <path class="cls-14"
            d="M333.36,120c4.9-.9,12.3.55,14.25,5.75.75,5.04-9.38,15.72-15.25,14.25-6.9-5.7-11.34-17.73,1-20Z" />
        </g>
        <path class="cls-2"
          d="M205.11,177c1.51,3.44,6.46,7.47,9,10.5-14.04,8.8-31.93,6.94-46.5.5,6.26-7.83,10.58-10.45,7-11.5l1-4.5c11.84,3.89,16.53,3.09,28-.5.84,2.28,1.39,5.24,1.5,5.5Z" />
        <path class="cls-5"
          d="M265.11,151c.07.27-.04.68,0,1,.06.52,1.47,2.94-.25,4.5-19.09,9.19-38.59,17.65-59.75,20.5-.11-.26-.66-3.22-1.5-5.5,3.26-1.02,6.29-2.92,9.5-4,17.24-5.81,34.5-11.51,52-16.5Z" />
        <path class="cls-5"
          d="M166.61,167.5c2.32.85,6.94,3.82,9,4.5l-1,4.5c-3.21-.94-13.47-1.64-19.25-3-15.23-3.58-29.12-11.56-43.5-17.5l-.25-2.5c.1-.5,1.37-2.2,1.5-2.5,18.14,4.77,35.89,10.07,53.5,16.5Z" />
        <path class="cls-14"
          d="M205.61,126c.1.07.18,1.68,1.25,2,.93.28,5.43-.34,8.5.5,1.71.47,31.17,10.58,33.5,11.5,2.69,1.06,13.36,5.93,14.75,7.5.95,1.07,1.16,2.18,1.5,3.5-17.5,4.99-34.76,10.69-52,16.5,2.61-4.7,9.91-11.86,4.25-16-2.1,0-3.3,1.87-5.25,3,1.56-2.57,5-3.29,2.75-6.5-1.24-.45-4.88,7.22-13.75,8.5,1.56-2.29,3.28-8.82.5-10,5.29-6.08.67-8.74.5-9.25-.13-.39,2.4-2.49-3.75-6.25-6.71-4.11-16.86-3.12-22.5,2.5-5.82,5.8-2.69,9.69-2.25,12,.56,2.94-.02,4.54,3.5,11-12.5-.64-11.45-12.02-14.5-6.5-3.11,4.33,3.88,12.63,4,17.5-17.61-6.43-35.36-11.73-53.5-16.5.1-.23-.04-2.01,2-4.5,1.32-.23,5.68-3.09,8-4,13-5.13,27.92-10.4,41.25-14.5,2.88-.88,6.74-.23,7.5-.5,1.79-.63,11.68-16.81,33.75-1.5Z" />
        <g>
          <path class="cls-14"
            d="M227.61,204c1.1,1.33,2.35,2.7,3.5,4,2.59,5.9,7.14,10.99,9.5,17,1.69,4.31,2.5,9.47,3.5,14,.37,1.7.68,3.3,1,5,.4,2.09.68,4.38,1,6.5.4,2.64,1.23,5.41,1.5,8,.27,2.62.35,5.37.5,8,.65,11.26.18,21.86-4,32.5-3.18,8.09-9.7,16.84-15.5,23.25l2,.75c-1.67,2.05-3.19,4.05-5,6-.15-.55-.7-3.21-2-2-25.59,11.74-28.2,16.99-57.5,8.5-8.34-5.14-17.56-8.52-24-16.5-1.18-1.72-3.83-5.2-4-5.5-.64-1.12-.96-1.42-1-1.5-.06-.12-.26-1.02-1-2.5-.35-.69-.48-.47-.5-.5-5.3-10.78-8.13-22.5-8.5-34.5,2.04,1.31,3.02,8.98,4,11.25,9.95,23.02,45.5,22.75,39.5,7.75-1.51-3.78-5.11-5.74-7.5-8.75,4,1.3,10.4,10.01,12.5,5,.44-3.54-17.58-15.55-.75-4.75l2.75-.75c1.75-8.33-16.26-6.9-14.5-11.5.8-2.08,9.84,3.6,9.5-4.5-7.24-7.25-11.92,2.71-18.5-4.75-.23-.26-2.56-4.64-3.5-6-1.5-2.16-11.31-17.19-11.5-18.25-.59-3.31,7.3-21.42,9.5-25.5,3.12-5.77,7.12-10.54,11-15.75,7.26,3.35,15.25,6.12,23.25,7,9.9,1.09,33.86.08,44.75-1Z" />
          <path class="cls-15"
            d="M226.11,201c.79.95,1.39,2.87,1.5,3-10.89,1.08-34.85,2.09-44.75,1-8-.88-15.99-3.65-23.25-7,2.56-3.43,5.33-6.66,8-10,14.57,6.44,32.46,8.3,46.5-.5,3.84,4.58,8.16,8.86,12,13.5Z" />
          <path class="cls-15"
            d="M139.11,277.5c5.67,3.65,15.12,15.35,31.5,16,6,15-29.55,15.27-39.5-7.75-.98-2.27-1.96-9.94-4-11.25-2.09-4.3,9.58,1.44,12,3Z" />
          <path class="cls-19"
            d="M166.11,335.5c1.77,1.09,7.79,7.33,12.25,9,16.04,5.99,35.1-5.15,45.25-17.5,1.3-1.21,1.85,1.45,2,2-12.81,13.83-18.84,18.27-35.25,27.5-15.31-6.41-34.31-18.3-44.75-31.25-1.41-1.74-2.23-4.4-3.5-6.25,6.44,7.98,15.66,11.36,24,16.5Z" />
          <path class="cls-19"
            d="M230.61,323l-2-.75c5.8-6.41,12.32-15.16,15.5-23.25-1.11,9.65-7.64,16.83-13.5,24Z" />
          <path class="cls-15"
            d="M223.61,327c-10.15,12.35-29.21,23.49-45.25,17.5-4.46-1.67-10.48-7.91-12.25-9,29.3,8.49,31.91,3.24,57.5-8.5Z" />
        </g>
        <g>
          <path class="cls-7"
            d="M293.11,131c-8.66,7.27-18.72,12.95-29.5,16.5-1.39-1.57-12.06-6.44-14.75-7.5-2.33-.92-31.79-11.03-33.5-11.5-3.07-.84-7.57-.22-8.5-.5-1.07-.32-1.15-1.93-1.25-2v-1c-.98-15.82,3.06-38.7,23.75-36.5,15.3,1.63,60.22,40.94,63.75,42.5Z" />
          <path class="cls-7"
            d="M231.11,110c.49.18,1.81.39,2,.5,14.11,20.99-19.81,21.7-15,5,.83-2.88,3.12-4.59,5.75-6,1.86,6.32,8.63,4.4,7.25.5Z" />
          <path class="cls-11"
            d="M216.61,115l1.5.5c-4.81,16.7,29.11,15.99,15-5,.04.02.13-.91.75-.5,3.65,2.4,6.1,9.32,3.25,14.25-5.44,9.4-24.79,3.66-20.5-9.25Z" />
          <path class="cls-10"
            d="M231.11,110c1.38,3.9-5.39,5.82-7.25-.5-2.63,1.41-4.92,3.12-5.75,6l-1.5-.5c.75-2.26,5.04-5.89,7.25-6.5,6.18-1.72,6.48,1.22,7.25,1.5Z" />
        </g>
        <g>
          <path class="cls-13"
            d="M182.11,118.5c3.69-1.07,11.4-1.25,15,0,2.18.75,6.7,4.56,8.5,6.5v1c-22.07-15.31-31.96.87-33.75,1.5-.76.27-4.62-.38-7.5.5-13.33,4.1-28.25,9.37-41.25,14.5-.58-.99,5.05-3.52,6.25-4,4.3-1.71,20.22-6.05,26.5-8,3.27-1.02,7.58-3.39,8-3.5,1.14-.3,6.7,1.18,8.75-1.75-1.95-2.26-.18-10.2-.5-13-.54-4.79-2.88-9.14-4-13.75,4.44,7.68,5.62,16.39,4.5,25.25.85,1.42,4.77-3.88,9.5-5.25Z" />
          <g>
            <path class="cls-7"
              d="M168.11,98.5c1.12,4.61,3.46,8.96,4,13.75.32,2.8-1.45,10.74.5,13-2.05,2.93-7.61,1.45-8.75,1.75-.42.11-4.73,2.48-8,3.5-6.28,1.95-22.2,6.29-26.5,8-1.2.48-6.83,3.01-6.25,4-2.32.91-6.68,3.77-8,4-1.56.27-12.76-4.38-14.75-5.5-5.01-2.82-9.05-7.47-14.25-10,3.19-1.65,44.84-36.48,58.75-41,10.4-3.39,17.8-.94,23.25,8.5Z" />
            <path class="cls-7"
              d="M156.61,109.5c.6.28.21-1.56,2.5,1-.74,1.56,2.31,4.18,1,9.25-2.71,10.52-21.32,10.46-19-2.75.52-2.98,5.43-8,8.75-8-.64,5.58,7.7,6.58,6.75.5Z" />
            <path class="cls-11"
              d="M139.61,116.5l1.5.5c-2.32,13.21,16.29,13.27,19,2.75,1.31-5.07-1.74-7.69-1-9.25,8.53,9.53-5.14,23.42-15.75,17-3.61-2.19-4.72-7.11-3.75-11Z" />
            <path class="cls-10"
              d="M156.61,109.5c.95,6.08-7.39,5.08-6.75-.5-3.32,0-8.23,5.02-8.75,8l-1.5-.5c1.32-5.28,8.42-9.76,13.75-9,1.29.18,2.18,1.51,3.25,2Z" />
          </g>
        </g>
        <g>
          <path class="cls-15"
            d="M212.11,154.5c1.95-1.13,3.15-3.01,5.25-3,5.66,4.14-1.64,11.3-4.25,16-3.21,1.08-6.24,2.98-9.5,4-11.47,3.59-16.16,4.39-28,.5-2.06-.68-6.68-3.65-9-4.5-.12-4.87-7.11-13.17-4-17.5,2.72,6.51,16.81,12.44,23.25,13,10.96.96,17.45-3.39,26.25-8.5Z" />
          <path class="cls-15"
            d="M201.11,156.5c-4.05.59-6.2.66-9.5-2.25-2.88-5.48,5.37-2.43,10-7.75,2.78,1.18,1.06,7.71-.5,10Z" />
          <path class="cls-15"
            d="M177.11,156.5c-3.52-6.46-2.94-8.06-3.5-11,5.15,5.72,14.02,4.85,14.5,6.25-1.42,4.11-7.07,4.95-11,4.75Z" />
          <g>
            <path class="cls-7"
              d="M201.61,146.5c-4.63,5.32-12.88,2.27-10,7.75,3.3,2.91,5.45,2.84,9.5,2.25,8.87-1.28,12.51-8.95,13.75-8.5,2.25,3.21-1.19,3.93-2.75,6.5-8.8,5.11-15.29,9.46-26.25,8.5-6.44-.56-20.53-6.49-23.25-13,3.05-5.52,2,5.86,14.5,6.5,3.93.2,9.58-.64,11-4.75-.48-1.4-9.35-.53-14.5-6.25-.44-2.31-3.57-6.2,2.25-12,5.64-5.62,15.79-6.61,22.5-2.5,6.15,3.76,3.62,5.86,3.75,6.25.17.51,4.79,3.17-.5,9.25Z" />
            <path class="cls-10" d="M184.86,133.5l.75,1.25c-9.76,6.3-10.9,1.81-.75-1.25Z" />
            <path class="cls-10" d="M189.36,133c7.84.05,8.9,3.63-.5,1l.5-1Z" />
          </g>
        </g>
      </g>
    </g>
  </g>
</svg>
